<svg width="18" height="19" viewBox="0 0 18 19" fill="none" xmlns="http://www.w3.org/2000/svg">
<g clip-path="url(#clip0_116_121)">
<rect width="17.6139" height="19" transform="translate(0.0490723)" fill="black"/>
<path fill-rule="evenodd" clip-rule="evenodd" d="M9.07098 4.19025C9.35759 3.88108 9.82227 3.88108 10.1089 4.19025L14.5124 8.94025C14.799 9.24941 14.799 9.75067 14.5124 10.0598L10.1089 14.8098C9.82227 15.119 9.35759 15.119 9.07098 14.8098C8.78436 14.5007 8.78436 13.9994 9.07098 13.6902L12.2216 10.2917H0.782984C0.377656 10.2917 0.0490723 9.93727 0.0490723 9.50004C0.0490723 9.06282 0.377656 8.70837 0.782984 8.70837H12.2216L9.07098 5.30983C8.78436 5.00067 8.78436 4.49941 9.07098 4.19025Z" fill="white"/>
</g>
<defs>
<clipPath id="clip0_116_121">
<rect width="17.6139" height="19" fill="white" transform="translate(0.0490723)"/>
</clipPath>
</defs>
</svg>
