<svg width="34" height="49" viewBox="0 0 34 49" fill="none" xmlns="http://www.w3.org/2000/svg">
<g opacity="0.8">
<path d="M32.9308 19.2283C33.0972 19.9036 33.2316 20.5845 33.3337 21.2689L28.6704 38.3779C28.23 38.9347 27.763 39.4742 27.2707 39.9946L32.9308 19.2283Z" fill="url(#paint0_linear_116_195)"/>
<path d="M31.8847 16.0289C32.0869 16.5212 32.2712 17.0184 32.4375 17.5196L25.9615 41.2795C25.5585 41.6468 25.1417 42.0026 24.7116 42.3462L31.8847 16.0289Z" fill="url(#paint1_linear_116_195)"/>
<path d="M30.6582 13.4907C30.8808 13.8887 31.0909 14.2912 31.2884 14.6976L23.5051 43.2536C23.1232 43.5238 22.7323 43.7849 22.3326 44.0366L30.6582 13.4907Z" fill="url(#paint2_linear_116_195)"/>
<path d="M29.3195 11.365C29.4373 11.5324 29.5531 11.7012 29.6667 11.8714C29.7804 12.0417 29.8917 12.213 30.0005 12.3853L21.1879 44.7182C21.0039 44.8216 20.8183 44.9231 20.631 45.0226C20.4439 45.1221 20.2556 45.2195 20.0662 45.3146L29.3195 11.365Z" fill="url(#paint3_linear_116_195)"/>
<path d="M27.8996 9.53634C28.1459 9.82505 28.3856 10.1191 28.6183 10.4182L18.9645 45.8374C18.6065 45.9977 18.2451 46.1503 17.8805 46.2954L27.8996 9.53634Z" fill="url(#paint4_linear_116_195)"/>
<path d="M26.4162 7.94106C26.6714 8.19326 26.9211 8.45043 27.165 8.71244L16.8124 46.6954C16.4636 46.818 16.1123 46.9339 15.7586 47.0429L26.4162 7.94106Z" fill="url(#paint5_linear_116_195)"/>
<path d="M24.8802 6.53917C25.143 6.7607 25.4011 6.98698 25.6543 7.2179L14.718 47.3422C14.377 47.4334 14.0341 47.5183 13.6895 47.597L24.8802 6.53917Z" fill="url(#paint6_linear_116_195)"/>
<path d="M23.2986 5.30376C23.568 5.49857 23.8334 5.69799 24.0947 5.9019L12.6721 47.8104C12.3379 47.8742 12.0023 47.9323 11.6655 47.9846L23.2986 5.30376Z" fill="url(#paint7_linear_116_195)"/>
<path d="M21.6767 4.21658C21.9522 4.38744 22.2241 4.5628 22.4925 4.74257L10.669 48.1219C10.3409 48.1614 10.0118 48.1954 9.68207 48.224L21.6767 4.21658Z" fill="url(#paint8_linear_116_195)"/>
<path d="M20.0181 3.26451C20.2991 3.41336 20.577 3.56667 20.8518 3.72433L8.70439 48.2924C8.38192 48.3096 8.0589 48.3216 7.73549 48.3283L20.0181 3.26451Z" fill="url(#paint9_linear_116_195)"/>
<path d="M18.325 2.43815C18.6113 2.56639 18.8949 2.69905 19.1757 2.83606L6.7751 48.3328C6.45793 48.3292 6.14054 48.3206 5.82308 48.3068L18.325 2.43815Z" fill="url(#paint10_linear_116_195)"/>
<path d="M16.5996 1.73114C16.8909 1.83971 17.1799 1.95271 17.4664 2.07007L4.87927 48.2511C4.56718 48.2277 4.25515 48.1993 3.94333 48.1661L16.5996 1.73114Z" fill="url(#paint11_linear_116_195)"/>
<path d="M14.8427 1.13902C15.1389 1.22853 15.433 1.32251 15.725 1.42089L3.01512 48.0524C2.70793 48.0099 2.40109 47.9626 2.09472 47.9104L14.8427 1.13902Z" fill="url(#paint12_linear_116_195)"/>
<path d="M1.18198 47.7403C0.879629 47.679 0.577875 47.613 0.276855 47.5423L13.0553 0.659353C13.3563 0.730139 13.6555 0.805453 13.9528 0.885225L1.18198 47.7403Z" fill="url(#paint13_linear_116_195)"/>
<path d="M30.24 36.1383L33.5668 23.9324C33.6224 26.045 33.3714 28.1681 32.8047 30.2473C32.238 32.3264 31.3711 34.3047 30.24 36.1383Z" fill="url(#paint14_linear_116_195)"/>
</g>
<defs>
<linearGradient id="paint0_linear_116_195" x1="32.8048" y1="30.2473" x2="4.78123" y2="22.9232" gradientUnits="userSpaceOnUse">
<stop stop-color="white" stop-opacity="0.9"/>
<stop offset="1" stop-color="white" stop-opacity="0"/>
</linearGradient>
<linearGradient id="paint1_linear_116_195" x1="32.8048" y1="30.2473" x2="4.78123" y2="22.9232" gradientUnits="userSpaceOnUse">
<stop stop-color="white" stop-opacity="0.9"/>
<stop offset="1" stop-color="white" stop-opacity="0"/>
</linearGradient>
<linearGradient id="paint2_linear_116_195" x1="32.8048" y1="30.2473" x2="4.78123" y2="22.9232" gradientUnits="userSpaceOnUse">
<stop stop-color="white" stop-opacity="0.9"/>
<stop offset="1" stop-color="white" stop-opacity="0"/>
</linearGradient>
<linearGradient id="paint3_linear_116_195" x1="32.8048" y1="30.2473" x2="4.78123" y2="22.9232" gradientUnits="userSpaceOnUse">
<stop stop-color="white" stop-opacity="0.9"/>
<stop offset="1" stop-color="white" stop-opacity="0"/>
</linearGradient>
<linearGradient id="paint4_linear_116_195" x1="32.8048" y1="30.2473" x2="4.78123" y2="22.9232" gradientUnits="userSpaceOnUse">
<stop stop-color="white" stop-opacity="0.9"/>
<stop offset="1" stop-color="white" stop-opacity="0"/>
</linearGradient>
<linearGradient id="paint5_linear_116_195" x1="32.8048" y1="30.2473" x2="4.78123" y2="22.9232" gradientUnits="userSpaceOnUse">
<stop stop-color="white" stop-opacity="0.9"/>
<stop offset="1" stop-color="white" stop-opacity="0"/>
</linearGradient>
<linearGradient id="paint6_linear_116_195" x1="32.8048" y1="30.2473" x2="4.78123" y2="22.9232" gradientUnits="userSpaceOnUse">
<stop stop-color="white" stop-opacity="0.9"/>
<stop offset="1" stop-color="white" stop-opacity="0"/>
</linearGradient>
<linearGradient id="paint7_linear_116_195" x1="32.8048" y1="30.2473" x2="4.78123" y2="22.9232" gradientUnits="userSpaceOnUse">
<stop stop-color="white" stop-opacity="0.9"/>
<stop offset="1" stop-color="white" stop-opacity="0"/>
</linearGradient>
<linearGradient id="paint8_linear_116_195" x1="32.8048" y1="30.2473" x2="4.78123" y2="22.9232" gradientUnits="userSpaceOnUse">
<stop stop-color="white" stop-opacity="0.9"/>
<stop offset="1" stop-color="white" stop-opacity="0"/>
</linearGradient>
<linearGradient id="paint9_linear_116_195" x1="32.8048" y1="30.2473" x2="4.78123" y2="22.9232" gradientUnits="userSpaceOnUse">
<stop stop-color="white" stop-opacity="0.9"/>
<stop offset="1" stop-color="white" stop-opacity="0"/>
</linearGradient>
<linearGradient id="paint10_linear_116_195" x1="32.8048" y1="30.2473" x2="4.78123" y2="22.9232" gradientUnits="userSpaceOnUse">
<stop stop-color="white" stop-opacity="0.9"/>
<stop offset="1" stop-color="white" stop-opacity="0"/>
</linearGradient>
<linearGradient id="paint11_linear_116_195" x1="32.8048" y1="30.2473" x2="4.78123" y2="22.9232" gradientUnits="userSpaceOnUse">
<stop stop-color="white" stop-opacity="0.9"/>
<stop offset="1" stop-color="white" stop-opacity="0"/>
</linearGradient>
<linearGradient id="paint12_linear_116_195" x1="32.8048" y1="30.2473" x2="4.78123" y2="22.9232" gradientUnits="userSpaceOnUse">
<stop stop-color="white" stop-opacity="0.9"/>
<stop offset="1" stop-color="white" stop-opacity="0"/>
</linearGradient>
<linearGradient id="paint13_linear_116_195" x1="32.8048" y1="30.2473" x2="4.78123" y2="22.9232" gradientUnits="userSpaceOnUse">
<stop stop-color="white" stop-opacity="0.9"/>
<stop offset="1" stop-color="white" stop-opacity="0"/>
</linearGradient>
<linearGradient id="paint14_linear_116_195" x1="32.8048" y1="30.2473" x2="4.78123" y2="22.9232" gradientUnits="userSpaceOnUse">
<stop stop-color="white" stop-opacity="0.9"/>
<stop offset="1" stop-color="white" stop-opacity="0"/>
</linearGradient>
</defs>
</svg>
