<svg width="162" height="155" viewBox="0 0 162 155" fill="none" xmlns="http://www.w3.org/2000/svg">
<g opacity="0.35">
<path fill-rule="evenodd" clip-rule="evenodd" d="M112.708 0.739357C113.738 1.72517 113.738 3.32348 112.708 4.30929L84.724 31.0841L129.499 73.9239L157.483 47.1495C158.513 46.1637 160.183 46.1637 161.214 47.1495C162.244 48.1353 162.244 49.7336 161.214 50.7194L133.23 77.4939L161.216 104.27C162.246 105.256 162.246 106.854 161.216 107.84C160.185 108.826 158.515 108.826 157.484 107.84L129.499 81.0638L84.7239 123.904L112.71 150.68C113.74 151.666 113.74 153.264 112.71 154.25C111.679 155.236 110.009 155.236 108.979 154.25L80.9927 127.474L53.0096 154.247C51.9793 155.233 50.3088 155.233 49.2785 154.247C48.2481 153.262 48.2481 151.663 49.2785 150.678L77.2615 123.904L32.4867 81.0639L4.50393 107.837C3.4736 108.823 1.80309 108.823 0.772753 107.837C-0.257583 106.852 -0.257585 105.253 0.772752 104.267L28.7555 77.494L0.774476 50.7222C-0.255861 49.7364 -0.255859 48.138 0.774478 47.1522C1.80481 46.1664 3.47532 46.1664 4.50566 47.1522L32.4867 73.924L77.2616 31.0841L49.2802 4.31182C48.2498 3.326 48.2498 1.72769 49.2802 0.741883C50.3105 -0.243927 51.981 -0.243927 53.0114 0.741883L80.9928 27.5141L108.977 0.739358C110.007 -0.246452 111.678 -0.246453 112.708 0.739357ZM80.9928 34.654L36.2179 77.494L80.9927 120.334L125.768 77.4939L80.9928 34.654Z" fill="url(#paint0_radial_116_112)"/>
<path d="M80.9937 36.1636C80.9937 58.9895 61.6539 77.4935 37.797 77.4935C61.6539 77.4935 80.9937 95.9975 80.9937 118.823C80.9937 95.9975 100.333 77.4935 124.19 77.4935C100.333 77.4935 80.9937 58.9895 80.9937 36.1636Z" fill="url(#paint1_radial_116_112)"/>
</g>
<defs>
<radialGradient id="paint0_radial_116_112" cx="0" cy="0" r="1" gradientUnits="userSpaceOnUse" gradientTransform="translate(80.9941 77.4948) rotate(90) scale(85.8285 89.7041)">
<stop stop-color="white"/>
<stop offset="1" stop-color="white" stop-opacity="0"/>
</radialGradient>
<radialGradient id="paint1_radial_116_112" cx="0" cy="0" r="1" gradientUnits="userSpaceOnUse" gradientTransform="translate(80.9936 77.4935) rotate(90) scale(47.7877 49.9461)">
<stop stop-color="white"/>
<stop offset="1" stop-color="white" stop-opacity="0"/>
</radialGradient>
</defs>
</svg>
